<svg width="200" height="200" viewBox="0 0 200 200" xmlns="http://www.w3.org/2000/svg">
  <rect width="200" height="200" rx="40" fill="#0f6e56"/>
  <path d="M55 90 h90 l-12 72 a12 12 0 0 1 -12 10 h-42 a12 12 0 0 1 -12 -10 z" fill="none" stroke="#ffffff" stroke-width="9" stroke-linejoin="round"/>
  <path d="M72 90 v-11 a28 28 0 0 1 56 0 v11" fill="none" stroke="#ffffff" stroke-width="9" stroke-linecap="round"/>
  <path d="M100 130 c-18 0 -26 13 -26 26 c0 12 9 21 20 21 c13 0 23 -12 23 -26 c0 -10 -6 -18 -14 -21 z" fill="#d85a30"/>
  <path d="M100 130 c6 -14 16 -21 30 -24" fill="none" stroke="#d85a30" stroke-width="6" stroke-linecap="round"/>
</svg>
